# xmcd CD database file
#
# Track frame offsets:
#	150
#	15943
#	46780
#	76446
#
# Disc length: 1324 seconds
#
# Revision: 2
# Processed by: cddbd v1.5PL3 Copyright (c) Steve Scherf et al.
# Submitted via: CDex 1.51
#
DISCID=1d052a04
DTITLE=Mr. Scruff - Honeydew
DYEAR=1999
DGENRE=Acid Jazz
TTITLE0=Honeydew [radio edit]
TTITLE1=So Long [Future Homosapiens Mix]
TTITLE2=Honeydew
TTITLE3=Honeydew [Instrumental]
EXTD=YEAR: 1999
EXTT0=
EXTT1=
EXTT2=
EXTT3=
PLAYORDER=
